# xmcd
#
# Track frame offsets:
#	150
#	20114
#	47413
#	87894
#	134388
#	164153
#	190533
#	243685
#	308681
#
# Disc length: 4507 seconds
#
# Revision: 1
# Processed by: cddbd v1.5.2PL0 Copyright (c) Steve Scherf et al.
# Submitted via: audiograbber 1.83.01
#
DISCID=74119909
DTITLE=Grateful Dead - 92-03-05 Hampton Coliseum, Hampton VA
DYEAR=1900
DGENRE=
TTITLE0=Help On The Way
TTITLE1=Slipknot!
TTITLE2=Franklin's Tower
TTITLE3=The Same Thing
TTITLE4=Jack-A-Roe
TTITLE5=Tom Thumb's Blues
TTITLE6=Let It Grow
TTITLE7=Eyes Of The World
TTITLE8=Way To Go Home
EXTD=
EXTT0=
EXTT1=
EXTT2=
EXTT3=
EXTT4=
EXTT5=
EXTT6=
EXTT7=
EXTT8=
PLAYORDER=
